Coordinates
version=1
nRows=27
nColumns=12
inDegrees=yes

Units are S.I. units (second, meters, Newtons, ...)
Angles are in degrees

endheader
time	SC_y	SC_z	SC_x	AC_y	AC_z	AC_x	GH_y	GH_z	GH_yy	EL_x	PS_y
       0.0              -20.83          21.69          70.52          49.67         -14.44         -13.45         -57.24          50.21          148.4          65.95          158.9
   0.03854              -20.84          21.69          70.51          49.68         -14.43         -13.45         -57.23           50.2          148.4          65.95          158.9
   0.07709              -20.84          21.69          70.51          49.68         -14.43         -13.44         -57.22           50.2          148.3          65.95          158.9
    0.1156              -20.85           21.7           70.5          49.68         -14.43         -13.44         -57.22          50.19          148.3          65.94          158.9
    0.1542              -20.85           21.7           70.5          49.68         -14.43         -13.43         -57.21          50.18          148.2          65.94          158.9
    0.1927              -20.86           21.7          70.49          49.68         -14.43         -13.43          -57.2          50.17          148.2          65.93          158.9
    0.2313              -20.87           21.7          70.48          49.69         -14.43         -13.42         -57.19          50.16          148.2          65.93          158.9
    0.2698              -20.88          21.71          70.47          49.69         -14.42         -13.42         -57.18          50.15          148.1          65.92          158.9
    0.3083              -20.89          21.71          70.47          49.69         -14.42         -13.41         -57.17          50.14          148.1          65.92          158.9
    0.3469               -20.9          21.71          70.46           49.7         -14.42          -13.4         -57.16          50.13          148.0          65.91          158.9
    0.3854              -20.91          21.72          70.45           49.7         -14.42         -13.39         -57.15          50.11          147.9           65.9          158.9
     0.424              -20.92          21.72          70.44           49.7         -14.41         -13.39         -57.13           50.1          147.9           65.9          158.9
    0.4625              -20.93          21.73          70.43          49.71         -14.41         -13.38         -57.12          50.08          147.8          65.89          158.9
    0.5011              -20.94          21.73          70.41          49.71         -14.41         -13.37         -57.11          50.07          147.7          65.88          158.9
    0.5396              -20.96          21.74           70.4          49.71          -14.4         -13.36         -57.09          50.05          147.6          65.87          158.9
    0.5782              -20.97          21.74          70.39          49.72          -14.4         -13.35         -57.07          50.03          147.6          65.86          158.9
    0.6167              -20.99          21.75          70.37          49.72          -14.4         -13.34         -57.05          50.01          147.5          65.85          158.9
    0.6552              -21.01          21.75          70.35          49.73         -14.39         -13.32         -57.03          49.99          147.4          65.84          158.9
    0.6938              -21.03          21.76          70.34          49.74         -14.39         -13.31         -57.01          49.96          147.2          65.83          158.9
    0.7323              -21.05          21.77          70.32          49.74         -14.38         -13.29         -56.98          49.93          147.1          65.81          158.9
    0.7709              -21.07          21.78          70.29          49.75         -14.38         -13.28         -56.96           49.9          147.0           65.8          158.9
    0.8094               -21.1          21.79          70.27          49.76         -14.37         -13.26         -56.93          49.87          146.8          65.78          158.9
     0.848              -21.13           21.8          70.24          49.77         -14.36         -13.24         -56.89          49.83          146.7          65.76          158.9
    0.8865              -21.16          21.81          70.21          49.78         -14.35         -13.22         -56.86          49.79          146.5          65.74          158.9
     0.925              -21.19          21.82          70.18          49.79         -14.35         -13.19         -56.82          49.75          146.3          65.72          158.9
    0.9636              -21.23          21.84          70.15           49.8         -14.34         -13.16         -56.77           49.7          146.0          65.69          158.9
     1.002              -21.28          21.85           70.1          49.82         -14.33         -13.13         -56.72          49.64          145.8          65.66          158.9
